<svg width="64" height="64" viewBox="0 0 64 64" fill="none" xmlns="http://www.w3.org/2000/svg">
<path d="M59.0001 0.998805C58.0779 0.998268 57.1839 1.31639 56.4693 1.89931C55.7547 2.48224 55.2635 3.29417 55.0788 4.19766C54.8941 5.10116 55.0273 6.04073 55.4558 6.85732C55.8842 7.67392 56.5817 8.31739 57.4301 8.67881L47.0001 26.0588L36.5701 8.67881C37.4607 8.3065 38.1867 7.62469 38.614 6.75914C39.0414 5.89359 39.1413 4.90269 38.8954 3.96924C38.6494 3.0358 38.0743 2.22276 37.2759 1.68013C36.4776 1.13749 35.5099 0.90186 34.5515 1.0167C33.593 1.13153 32.7085 1.58909 32.0609 2.30497C31.4133 3.02085 31.0465 3.94674 31.0281 4.91187C31.0096 5.87699 31.3408 6.81623 31.9606 7.55632C32.5803 8.29642 33.4467 8.78744 34.4001 8.9388L45.4001 27.2788C44.5733 27.5571 43.8338 28.0469 43.2548 28.6995C42.6759 29.3521 42.2778 30.1447 42.1001 30.9988H21.9001C21.7277 30.1381 21.3317 29.3379 20.752 28.6787C20.1722 28.0196 19.4291 27.5246 18.5975 27.2437C17.7658 26.9628 16.8748 26.9058 16.0141 27.0785C15.1534 27.2511 14.3534 27.6473 13.6943 28.2273C13.0353 28.8072 12.5406 29.5504 12.26 30.3822C11.9793 31.2139 11.9225 32.1049 12.0954 32.9655C12.2683 33.8262 12.6647 34.6262 13.2448 35.285C13.8249 35.9438 14.5683 36.4384 15.4001 36.7188L4.4001 55.0588C3.44674 55.2102 2.58028 55.7012 1.96055 56.4413C1.34082 57.1814 1.00963 58.1206 1.02807 59.0857C1.04652 60.0509 1.41335 60.9768 2.0609 61.6926C2.70845 62.4085 3.59304 62.8661 4.55149 62.9809C5.50993 63.0958 6.47757 62.8601 7.27591 62.3175C8.07426 61.7748 8.64944 60.9618 8.89536 60.0284C9.14128 59.0949 9.04135 58.104 8.614 57.2385C8.18665 56.3729 7.46072 55.6911 6.5701 55.3188L17.0001 37.9388L27.4301 55.3188C26.5395 55.6911 25.8136 56.3729 25.3862 57.2385C24.9589 58.104 24.8589 59.0949 25.1048 60.0284C25.3508 60.9618 25.9259 61.7748 26.7243 62.3175C27.5226 62.8601 28.4903 63.0958 29.4487 62.9809C30.4072 62.8661 31.2918 62.4085 31.9393 61.6926C32.5869 60.9768 32.9537 60.0509 32.9721 59.0857C32.9906 58.1206 32.6594 57.1814 32.0396 56.4413C31.4199 55.7012 30.5535 55.2102 29.6001 55.0588L18.6001 36.7188C19.4269 36.4405 20.1664 35.9507 20.7454 35.2981C21.3243 34.6456 21.7224 33.8529 21.9001 32.9988H42.1001C42.2725 33.8595 42.6685 34.6597 43.2482 35.3189C43.828 35.9781 44.5711 36.473 45.4027 36.7539C46.2344 37.0348 47.1254 37.0918 47.9861 36.9191C48.8468 36.7465 49.6468 36.3503 50.3059 35.7703C50.9649 35.1904 51.4596 34.4472 51.7402 33.6155C52.0209 32.7837 52.0777 31.8927 51.9048 31.0321C51.7319 30.1714 51.3355 29.3715 50.7554 28.7126C50.1753 28.0538 49.4319 27.5593 48.6001 27.2788L59.6001 8.9388C60.5794 8.76857 61.4603 8.23979 62.071 7.45552C62.6818 6.67125 62.9786 5.68768 62.9037 4.69649C62.8288 3.7053 62.3875 2.77751 61.6659 2.09392C60.9442 1.41034 59.9939 1.01994 59.0001 0.998805V0.998805ZM50.0001 31.9988C50.0001 32.5921 49.8242 33.1722 49.4945 33.6655C49.1649 34.1589 48.6963 34.5434 48.1482 34.7704C47.6 34.9975 46.9968 35.0569 46.4148 34.9412C45.8329 34.8254 45.2983 34.5397 44.8788 34.1201C44.4592 33.7006 44.1735 33.166 44.0577 32.5841C43.942 32.0021 44.0014 31.3989 44.2285 30.8508C44.4555 30.3026 44.84 29.834 45.3334 29.5044C45.8267 29.1748 46.4068 28.9988 47.0001 28.9988C47.7958 28.9988 48.5588 29.3149 49.1214 29.8775C49.684 30.4401 50.0001 31.2032 50.0001 31.9988V31.9988Z" fill="#616161" id="id_101"></path>
</svg>